M48
; DRILL file {KiCad 7.0.9} date Thu Feb 29 16:40:55 2024
; FORMAT={-:-/ absolute / inch / decimal}
; #@! TF.CreationDate,2024-02-29T16:40:55+08:00
; #@! TF.GenerationSoftware,Kicad,Pcbnew,7.0.9
; #@! TF.FileFunction,Plated,1,2,PTH
FMAT,2
INCH
; #@! TA.AperFunction,Plated,PTH,ViaDrill
T1C0.0157
; #@! TA.AperFunction,Plated,PTH,ComponentDrill
T2C0.0295
; #@! TA.AperFunction,Plated,PTH,ComponentDrill
T3C0.0315
; #@! TA.AperFunction,Plated,PTH,ComponentDrill
T4C0.0374
; #@! TA.AperFunction,Plated,PTH,ComponentDrill
T5C0.0394
; #@! TA.AperFunction,Plated,PTH,ComponentDrill
T6C0.0472
; #@! TA.AperFunction,Plated,PTH,ComponentDrill
T7C0.1260
%
G90
G05
T1
X2.6415Y-4.6972
T2
X2.1Y-3.2
X2.1Y-3.4
X2.15Y-3.4
X2.2Y-3.2
X2.2Y-3.4
X2.3Y-2.75
X2.35Y-2.75
X2.4Y-2.75
X2.5Y-3.85
X2.5Y-4.15
X2.5Y-4.45
X2.6Y-3.85
X2.6Y-4.15
X2.6Y-4.45
X2.75Y-3.95
X2.75Y-4.0
X2.75Y-4.05
X2.85Y-3.45
X2.9Y-3.45
X2.95Y-3.45
X3.0Y-2.75
X3.0Y-2.8
X3.0Y-2.85
X3.05Y-5.3
X3.05Y-5.35
X3.05Y-5.4
X3.65Y-4.9
X3.65Y-4.95
X3.65Y-5.0
X3.7Y-2.75
X3.75Y-2.75
X3.8Y-2.75
X4.2957Y-4.9
X4.3957Y-4.9
T3
X1.95Y-3.75
X1.95Y-3.9469
X2.1Y-2.7016
X2.1Y-2.8
X2.1Y-2.95
X2.1Y-3.05
X2.1Y-3.85
X2.1Y-4.15
X2.1Y-4.45
X2.2Y-4.75
X2.2Y-4.9469
X2.2Y-5.0516
X2.2Y-5.2484
X2.2Y-5.3516
X2.2Y-5.5484
X2.2016Y-5.85
X2.2079Y-3.7
X2.2079Y-4.0
X2.2079Y-4.3
X2.2079Y-4.6
X2.3Y-5.85
X2.35Y-4.75
X2.35Y-5.05
X2.3504Y-5.3504
X2.3504Y-5.4504
X2.3504Y-5.5504
X2.3504Y-5.6504
X2.4Y-2.95
X2.4Y-3.05
X2.4Y-3.7
X2.4Y-3.85
X2.4Y-4.0
X2.4Y-4.15
X2.4Y-4.3
X2.4Y-4.45
X2.4Y-4.6
X2.45Y-4.75
X2.45Y-5.05
X2.5Y-5.8
X2.5031Y-2.95
X2.5031Y-3.1
X2.5031Y-3.25
X2.55Y-3.35
X2.55Y-3.5469
X2.6Y-2.7016
X2.6Y-2.8
X2.6Y-4.8
X2.6Y-4.9
X2.6Y-5.0
X2.6Y-5.1
X2.6Y-5.2
X2.6016Y-4.6
X2.6504Y-5.3504
X2.6504Y-5.4504
X2.6504Y-5.5504
X2.6504Y-5.6504
X2.7Y-2.95
X2.7Y-3.1
X2.7Y-3.25
X2.7Y-3.35
X2.7Y-3.65
X2.7031Y-3.8
X2.75Y-4.15
X2.75Y-4.45
X2.7984Y-4.6
X2.8Y-2.75
X2.8Y-3.25
X2.8Y-5.35
X2.8Y-5.65
X2.8Y-5.8
X2.9Y-3.8
X2.9Y-3.9472
X2.9Y-4.2472
X2.9Y-4.3472
X2.9Y-4.6472
X2.9Y-4.8
X2.9Y-4.9
X2.9Y-5.0
X2.9Y-5.1
X2.9Y-5.2
X2.9Y-5.35
X2.9Y-5.65
X2.95Y-2.95
X2.95Y-3.25
X2.9972Y-3.9472
X2.9972Y-4.2472
X2.9984Y-4.3972
X3.0016Y-4.55
X3.0031Y-3.8
X3.05Y-2.95
X3.05Y-3.25
X3.05Y-3.35
X3.05Y-3.65
X3.05Y-4.65
X3.05Y-5.15
X3.05Y-5.5016
X3.05Y-5.6984
X3.0972Y-3.9472
X3.0972Y-4.2472
X3.1Y-2.8
X3.15Y-2.95
X3.15Y-3.25
X3.15Y-3.35
X3.15Y-3.65
X3.1516Y-5.35
X3.1516Y-5.5
X3.1516Y-5.85
X3.1953Y-4.3972
X3.1972Y-3.9472
X3.1972Y-4.2472
X3.1984Y-4.55
X3.2Y-3.8
X3.2Y-4.65
X3.2Y-4.95
X3.2Y-5.05
X3.25Y-2.95
X3.25Y-5.65
X3.25Y-5.85
X3.2516Y-3.1
X3.2969Y-2.8
X3.2969Y-4.3472
X3.2969Y-4.5441
X3.2972Y-3.9472
X3.2972Y-4.2472
X3.3016Y-5.2
X3.3031Y-4.75
X3.3031Y-4.9
X3.3484Y-5.35
X3.3484Y-5.5
X3.35Y-3.25
X3.35Y-3.4469
X3.35Y-3.55
X3.35Y-3.7469
X3.4484Y-3.1
X3.4984Y-5.2
X3.5Y-2.7
X3.5Y-2.7984
X3.5Y-3.2504
X3.5Y-3.3504
X3.5Y-3.4504
X3.5Y-3.5504
X3.5Y-4.75
X3.5Y-4.9
X3.5Y-5.05
X3.5031Y-3.7
X3.55Y-2.95
X3.55Y-5.3
X3.55Y-5.4969
X3.5531Y-3.1
X3.6031Y-4.75
X3.6516Y-5.15
X3.6516Y-5.85
X3.6531Y-2.95
X3.7Y-3.7
X3.75Y-3.1
X3.75Y-5.15
X3.75Y-5.3
X3.75Y-5.4969
X3.75Y-5.65
X3.75Y-5.85
X3.8Y-3.2504
X3.8Y-3.3504
X3.8Y-3.4504
X3.8Y-3.5504
X3.8Y-4.75
X3.8031Y-3.7
X3.85Y-2.95
X3.8996Y-5.2004
X3.8996Y-5.5004
X3.9Y-4.9
X3.9Y-5.85
X3.9079Y-5.65
X3.9996Y-5.2004
X3.9996Y-5.5004
X4.0Y-2.7
X4.0Y-2.7984
X4.0Y-3.7
X4.0079Y-4.75
X4.0079Y-5.05
X4.0996Y-5.2004
X4.0996Y-5.5004
X4.1Y-5.65
X4.1996Y-5.2004
X4.1996Y-5.5004
X4.2Y-4.75
X4.2Y-4.9
X4.2Y-5.05
X4.2Y-5.85
X4.35Y-5.2031
X4.35Y-5.4
X4.35Y-5.5
X4.35Y-5.6969
X4.35Y-5.8016
X4.35Y-5.9984
T4
X1.9358Y-5.3016
X1.9358Y-5.4
X1.9358Y-5.4984
X1.95Y-3.0016
X1.95Y-3.1
X1.95Y-3.1984
X1.95Y-4.1
X1.95Y-4.1984
X1.95Y-4.2969
T5
X1.9358Y-5.7508
X1.9358Y-5.8492
X1.95Y-3.45
X1.95Y-3.5484
X2.499Y-5.951
X2.599Y-5.951
X2.699Y-5.951
X2.799Y-5.951
X2.899Y-5.951
X2.999Y-5.951
X3.5Y-3.85
X3.6Y-3.85
X3.7Y-3.85
X3.8Y-3.85
X3.9Y-3.85
X4.0Y-3.85
X4.05Y-3.0
X4.05Y-3.0984
X4.05Y-3.35
X4.05Y-3.4484
X4.05Y-4.1
X4.05Y-4.1984
X4.05Y-4.4516
X4.05Y-4.55
T6
X1.7122Y-4.5047
X1.7122Y-5.0953
X1.9878Y-4.5047
X1.9878Y-5.0953
X3.5122Y-4.0
X3.5122Y-4.5906
X3.7878Y-4.0
X3.7878Y-4.5906
T7
X1.7Y-2.75
X1.7Y-3.85
X1.7Y-6.35
X4.3Y-2.75
X4.3Y-3.85
X4.3Y-6.35
T0
M30
