%TF.GenerationSoftware,KiCad,Pcbnew,7.0.9*%
%TF.CreationDate,2024-02-29T16:41:00+08:00*%
%TF.ProjectId,Elecraft_K1_Remake,456c6563-7261-4667-945f-4b315f52656d,rev?*%
%TF.SameCoordinates,Original*%
%TF.FileFunction,Soldermask,Bot*%
%TF.FilePolarity,Negative*%
%FSLAX46Y46*%
G04 Gerber Fmt 4.6, Leading zero omitted, Abs format (unit mm)*
G04 Created by KiCad (PCBNEW 7.0.9) date 2024-02-29 16:41:00*
%MOMM*%
%LPD*%
G01*
G04 APERTURE LIST*
G04 Aperture macros list*
%AMRoundRect*
0 Rectangle with rounded corners*
0 $1 Rounding radius*
0 $2 $3 $4 $5 $6 $7 $8 $9 X,Y pos of 4 corners*
0 Add a 4 corners polygon primitive as box body*
4,1,4,$2,$3,$4,$5,$6,$7,$8,$9,$2,$3,0*
0 Add four circle primitives for the rounded corners*
1,1,$1+$1,$2,$3*
1,1,$1+$1,$4,$5*
1,1,$1+$1,$6,$7*
1,1,$1+$1,$8,$9*
0 Add four rect primitives between the rounded corners*
20,1,$1+$1,$2,$3,$4,$5,0*
20,1,$1+$1,$4,$5,$6,$7,0*
20,1,$1+$1,$6,$7,$8,$9,0*
20,1,$1+$1,$8,$9,$2,$3,0*%
G04 Aperture macros list end*
%ADD10C,3.000000*%
%ADD11C,1.600000*%
%ADD12C,5.500000*%
%ADD13O,1.500000X1.050000*%
%ADD14R,1.500000X1.050000*%
%ADD15R,1.600000X1.600000*%
%ADD16O,1.600000X1.600000*%
%ADD17O,1.700000X1.700000*%
%ADD18R,1.700000X1.700000*%
%ADD19O,2.000000X1.700000*%
%ADD20RoundRect,0.250000X0.750000X-0.600000X0.750000X0.600000X-0.750000X0.600000X-0.750000X-0.600000X0*%
%ADD21C,1.500000*%
%ADD22O,1.050000X1.500000*%
%ADD23R,1.050000X1.500000*%
%ADD24O,1.950000X1.700000*%
%ADD25RoundRect,0.250000X-0.725000X0.600000X-0.725000X-0.600000X0.725000X-0.600000X0.725000X0.600000X0*%
%ADD26RoundRect,0.250000X-0.750000X0.600000X-0.750000X-0.600000X0.750000X-0.600000X0.750000X0.600000X0*%
G04 APERTURE END LIST*
D10*
%TO.C,T1*%
X89210000Y-101600000D03*
X89210000Y-116600000D03*
X96210000Y-101600000D03*
X96210000Y-116600000D03*
%TD*%
D11*
%TO.C,C16*%
X81280000Y-96520000D03*
X76280000Y-96520000D03*
%TD*%
D12*
%TO.C,J8*%
X109220000Y-69850000D03*
%TD*%
D13*
%TO.C,Q6*%
X92710000Y-124460000D03*
X92710000Y-125730000D03*
D14*
X92710000Y-127000000D03*
%TD*%
D11*
%TO.C,C14*%
X101600000Y-71080000D03*
D15*
X101600000Y-68580000D03*
%TD*%
D11*
%TO.C,C5*%
X63580000Y-74930000D03*
X68580000Y-74930000D03*
%TD*%
%TO.C,C19*%
X88900000Y-71080000D03*
D15*
X88900000Y-68580000D03*
%TD*%
D11*
%TO.C,R22*%
X66040000Y-132080000D03*
D16*
X73660000Y-132080000D03*
%TD*%
D15*
%TO.C,U2*%
X76130000Y-107880000D03*
D16*
X78670000Y-107880000D03*
X81210000Y-107880000D03*
X83750000Y-107880000D03*
X83750000Y-100260000D03*
X81210000Y-100260000D03*
X78670000Y-100260000D03*
X76130000Y-100260000D03*
%TD*%
%TO.C,D5*%
X59690000Y-120650000D03*
D15*
X59690000Y-128270000D03*
%TD*%
D11*
%TO.C,C21*%
X95250000Y-148590000D03*
D15*
X92750000Y-148590000D03*
%TD*%
D17*
%TO.C,J4*%
X63475000Y-151155000D03*
X66015000Y-151155000D03*
X68555000Y-151155000D03*
X71095000Y-151155000D03*
X73635000Y-151155000D03*
D18*
X76175000Y-151155000D03*
%TD*%
D16*
%TO.C,R9*%
X73660000Y-100260000D03*
D11*
X73660000Y-107880000D03*
%TD*%
D16*
%TO.C,R3*%
X53340000Y-77470000D03*
D11*
X60960000Y-77470000D03*
%TD*%
%TO.C,C30*%
X55880000Y-125650000D03*
X55880000Y-120650000D03*
%TD*%
D19*
%TO.C,J1*%
X102870000Y-104140000D03*
D20*
X102870000Y-106640000D03*
%TD*%
D11*
%TO.C,C25*%
X71080000Y-116840000D03*
X66080000Y-116840000D03*
%TD*%
%TO.C,C9*%
X55880000Y-140930000D03*
X55880000Y-135930000D03*
%TD*%
%TO.C,C1*%
X77470000Y-144740000D03*
X77470000Y-139740000D03*
%TD*%
D21*
%TO.C,Y6*%
X101800000Y-128270000D03*
X106680000Y-128270000D03*
%TD*%
D16*
%TO.C,R12*%
X82550000Y-74930000D03*
D11*
X90170000Y-74930000D03*
%TD*%
D16*
%TO.C,R19*%
X53340000Y-113030000D03*
D11*
X60960000Y-113030000D03*
%TD*%
%TO.C,C29*%
X49530000Y-100250000D03*
X49530000Y-95250000D03*
%TD*%
%TO.C,C32*%
X55880000Y-128310000D03*
X55880000Y-133310000D03*
%TD*%
%TO.C,C34*%
X91520000Y-120650000D03*
X96520000Y-120650000D03*
%TD*%
%TO.C,C13*%
X55920000Y-148590000D03*
D15*
X58420000Y-148590000D03*
%TD*%
D16*
%TO.C,R20*%
X81280000Y-128270000D03*
D11*
X88900000Y-128270000D03*
%TD*%
D22*
%TO.C,Q4*%
X74930000Y-87630000D03*
X73660000Y-87630000D03*
D23*
X72390000Y-87630000D03*
%TD*%
D16*
%TO.C,R6*%
X71120000Y-147320000D03*
D11*
X63500000Y-147320000D03*
%TD*%
%TO.C,C35*%
X83900000Y-120650000D03*
X88900000Y-120650000D03*
%TD*%
D16*
%TO.C,U7*%
X106670000Y-139710000D03*
X104130000Y-139710000D03*
X101590000Y-139710000D03*
X99050000Y-139710000D03*
X99050000Y-132090000D03*
X101590000Y-132090000D03*
X104130000Y-132090000D03*
D15*
X106670000Y-132090000D03*
%TD*%
D12*
%TO.C,J12*%
X43180000Y-161290000D03*
%TD*%
D11*
%TO.C,C26*%
X64770000Y-90090000D03*
X64770000Y-85090000D03*
%TD*%
D16*
%TO.C,R13*%
X69850000Y-105410000D03*
D11*
X69850000Y-113030000D03*
%TD*%
D17*
%TO.C,J5*%
X101600000Y-97790000D03*
X99060000Y-97790000D03*
X96520000Y-97790000D03*
X93980000Y-97790000D03*
X91440000Y-97790000D03*
D18*
X88900000Y-97790000D03*
%TD*%
D24*
%TO.C,RV3*%
X49530000Y-109140000D03*
X49530000Y-106640000D03*
D25*
X49530000Y-104140000D03*
%TD*%
D11*
%TO.C,C31*%
X101600000Y-93980000D03*
X96600000Y-93980000D03*
%TD*%
%TO.C,C27*%
X92790000Y-74930000D03*
X97790000Y-74930000D03*
%TD*%
D16*
%TO.C,R23*%
X99060000Y-124460000D03*
D11*
X106680000Y-124460000D03*
%TD*%
D21*
%TO.C,Y2*%
X56080000Y-101600000D03*
X60960000Y-101600000D03*
%TD*%
D11*
%TO.C,C20*%
X110490000Y-152360000D03*
X110490000Y-147360000D03*
%TD*%
%TO.C,C10*%
X53340000Y-71120000D03*
D15*
X53340000Y-68620000D03*
%TD*%
%TO.C,U6*%
X66040000Y-121920000D03*
D16*
X66040000Y-124460000D03*
X66040000Y-127000000D03*
X66040000Y-129540000D03*
X73660000Y-129540000D03*
X73660000Y-127000000D03*
X73660000Y-124460000D03*
X73660000Y-121920000D03*
%TD*%
D22*
%TO.C,D4*%
X66040000Y-113030000D03*
D23*
X63500000Y-113030000D03*
%TD*%
D11*
%TO.C,C28*%
X93980000Y-93980000D03*
X88980000Y-93980000D03*
%TD*%
%TO.C,C6*%
X81160000Y-111690000D03*
X76160000Y-111690000D03*
%TD*%
%TO.C,C2*%
X85050000Y-135890000D03*
X80050000Y-135890000D03*
%TD*%
%TO.C,R21*%
X81280000Y-118110000D03*
D16*
X81280000Y-125730000D03*
%TD*%
D26*
%TO.C,J3*%
X49170000Y-146070000D03*
D19*
X49170000Y-148570000D03*
%TD*%
D16*
%TO.C,L2*%
X77470000Y-118110000D03*
D11*
X77470000Y-130810000D03*
%TD*%
D16*
%TO.C,R15*%
X53340000Y-97790000D03*
D11*
X60960000Y-97790000D03*
%TD*%
D16*
%TO.C,R16*%
X68580000Y-85090000D03*
D11*
X68580000Y-92710000D03*
%TD*%
D22*
%TO.C,Q5*%
X53340000Y-86360000D03*
X54610000Y-86360000D03*
D23*
X55880000Y-86360000D03*
%TD*%
D11*
%TO.C,C33*%
X81240000Y-115570000D03*
X76240000Y-115570000D03*
%TD*%
D21*
%TO.C,Y4*%
X60960000Y-116840000D03*
X56080000Y-116840000D03*
%TD*%
D11*
%TO.C,C36*%
X88860000Y-132080000D03*
X83860000Y-132080000D03*
%TD*%
%TO.C,L3*%
X95250000Y-143510000D03*
D16*
X82550000Y-143510000D03*
%TD*%
D23*
%TO.C,D2*%
X63500000Y-97790000D03*
D22*
X66040000Y-97790000D03*
%TD*%
D16*
%TO.C,R2*%
X60960000Y-74930000D03*
D11*
X53340000Y-74930000D03*
%TD*%
D21*
%TO.C,Y3*%
X60960000Y-109220000D03*
X56080000Y-109220000D03*
%TD*%
D12*
%TO.C,J7*%
X109220000Y-97790000D03*
%TD*%
D16*
%TO.C,U3*%
X67320000Y-135900000D03*
X67320000Y-138440000D03*
X67320000Y-140980000D03*
X67320000Y-143520000D03*
X59700000Y-143520000D03*
X59700000Y-140980000D03*
X59700000Y-138440000D03*
D15*
X59700000Y-135900000D03*
%TD*%
D16*
%TO.C,R4*%
X74930000Y-74930000D03*
D11*
X74930000Y-82550000D03*
%TD*%
D16*
%TO.C,R14*%
X80010000Y-92710000D03*
D11*
X80010000Y-85090000D03*
%TD*%
%TO.C,C11*%
X83740000Y-71120000D03*
X78740000Y-71120000D03*
%TD*%
%TO.C,C37*%
X83900000Y-124460000D03*
X88900000Y-124460000D03*
%TD*%
D22*
%TO.C,D3*%
X66040000Y-105410000D03*
D23*
X63500000Y-105410000D03*
%TD*%
D11*
%TO.C,C23*%
X85090000Y-82550000D03*
X85090000Y-87550000D03*
%TD*%
D22*
%TO.C,U4*%
X96520000Y-69850000D03*
X95250000Y-69850000D03*
D23*
X93980000Y-69850000D03*
%TD*%
D19*
%TO.C,J10*%
X49530000Y-90130000D03*
D26*
X49530000Y-87630000D03*
%TD*%
D16*
%TO.C,L1*%
X71120000Y-82550000D03*
D11*
X71120000Y-69850000D03*
%TD*%
%TO.C,C17*%
X83740000Y-115420000D03*
X83740000Y-110420000D03*
%TD*%
%TO.C,R8*%
X71120000Y-135890000D03*
D16*
X71120000Y-143510000D03*
%TD*%
D11*
%TO.C,C4*%
X66040000Y-71120000D03*
D15*
X66040000Y-68620000D03*
%TD*%
D22*
%TO.C,D7*%
X111650000Y-124460000D03*
D23*
X109110000Y-124460000D03*
%TD*%
D16*
%TO.C,R10*%
X73660000Y-110420000D03*
D11*
X73660000Y-118040000D03*
%TD*%
%TO.C,C40*%
X95250000Y-139620000D03*
X95250000Y-134620000D03*
%TD*%
D16*
%TO.C,R11*%
X99060000Y-148590000D03*
D11*
X106680000Y-148590000D03*
%TD*%
D15*
%TO.C,C41*%
X90170000Y-134620000D03*
D11*
X90170000Y-139620000D03*
%TD*%
D16*
%TO.C,R1*%
X73660000Y-143510000D03*
D11*
X73660000Y-135890000D03*
%TD*%
D12*
%TO.C,J6*%
X43180000Y-69850000D03*
%TD*%
D11*
%TO.C,C3*%
X80050000Y-139700000D03*
X85050000Y-139700000D03*
%TD*%
D21*
%TO.C,Y1*%
X60960000Y-93980000D03*
X56080000Y-93980000D03*
%TD*%
D13*
%TO.C,Q3*%
X69850000Y-100330000D03*
X69850000Y-101600000D03*
D14*
X69850000Y-102870000D03*
%TD*%
D16*
%TO.C,R7*%
X80010000Y-82550000D03*
D11*
X80010000Y-74930000D03*
%TD*%
%TO.C,C8*%
X63580000Y-82550000D03*
X68580000Y-82550000D03*
%TD*%
D13*
%TO.C,Q1*%
X77470000Y-134620000D03*
X77470000Y-135890000D03*
D14*
X77470000Y-137160000D03*
%TD*%
D19*
%TO.C,J2*%
X102870000Y-76200000D03*
D20*
X102870000Y-78700000D03*
%TD*%
D11*
%TO.C,C24*%
X85090000Y-95170000D03*
X85090000Y-90170000D03*
%TD*%
D16*
%TO.C,R17*%
X53340000Y-105410000D03*
D11*
X60960000Y-105410000D03*
%TD*%
D21*
%TO.C,Y5*%
X106680000Y-120650000D03*
X101800000Y-120650000D03*
%TD*%
D11*
%TO.C,C22*%
X90250000Y-78740000D03*
X95250000Y-78740000D03*
%TD*%
D16*
%TO.C,U5*%
X96520000Y-82560000D03*
X96520000Y-85100000D03*
X96520000Y-87640000D03*
X96520000Y-90180000D03*
X88900000Y-90180000D03*
X88900000Y-87640000D03*
X88900000Y-85100000D03*
D15*
X88900000Y-82560000D03*
%TD*%
D16*
%TO.C,R5*%
X77470000Y-74930000D03*
D11*
X77470000Y-82550000D03*
%TD*%
%TO.C,C15*%
X73660000Y-96520000D03*
X68660000Y-96520000D03*
%TD*%
D12*
%TO.C,J11*%
X43180000Y-97790000D03*
%TD*%
D19*
%TO.C,J14*%
X102870000Y-113070000D03*
D20*
X102870000Y-115570000D03*
%TD*%
D22*
%TO.C,D1*%
X53340000Y-81280000D03*
D23*
X55880000Y-81280000D03*
%TD*%
D13*
%TO.C,Q2*%
X76200000Y-69850000D03*
X76200000Y-71120000D03*
D14*
X76200000Y-72390000D03*
%TD*%
D16*
%TO.C,D6*%
X62230000Y-128270000D03*
D15*
X62230000Y-120650000D03*
%TD*%
D11*
%TO.C,C7*%
X63580000Y-78740000D03*
X68580000Y-78740000D03*
%TD*%
D15*
%TO.C,C38*%
X95250000Y-130810000D03*
D11*
X92750000Y-130810000D03*
%TD*%
D24*
%TO.C,RV1*%
X49530000Y-81240000D03*
X49530000Y-78740000D03*
D25*
X49530000Y-76240000D03*
%TD*%
D16*
%TO.C,R18*%
X77470000Y-92710000D03*
D11*
X77470000Y-85090000D03*
%TD*%
%TO.C,C18*%
X82550000Y-148590000D03*
D15*
X80050000Y-148590000D03*
%TD*%
D12*
%TO.C,J13*%
X109220000Y-161290000D03*
%TD*%
D19*
%TO.C,J9*%
X102870000Y-85090000D03*
D20*
X102870000Y-87590000D03*
%TD*%
D22*
%TO.C,U1*%
X60960000Y-69850000D03*
X59690000Y-69850000D03*
D23*
X58420000Y-69850000D03*
%TD*%
D10*
%TO.C,T2*%
X43490000Y-114420000D03*
X43490000Y-129420000D03*
X50490000Y-114420000D03*
X50490000Y-129420000D03*
%TD*%
D11*
%TO.C,C42*%
X110490000Y-144700000D03*
X110490000Y-139700000D03*
%TD*%
D24*
%TO.C,RV2*%
X49170000Y-139660000D03*
X49170000Y-137160000D03*
D25*
X49170000Y-134660000D03*
%TD*%
D11*
%TO.C,C39*%
X110490000Y-137160000D03*
X110490000Y-132160000D03*
%TD*%
%TO.C,C12*%
X87590000Y-78740000D03*
X82590000Y-78740000D03*
%TD*%
D21*
%TO.C,Y7*%
X99260000Y-143510000D03*
X104140000Y-143510000D03*
%TD*%
M02*
