M48
; DRILL file {KiCad 7.0.9} date Tue Jan 16 00:27:56 2024
; FORMAT={-:-/ absolute / inch / decimal}
; #@! TF.CreationDate,2024-01-16T00:27:56+08:00
; #@! TF.GenerationSoftware,Kicad,Pcbnew,7.0.9
; #@! TF.FileFunction,Plated,1,2,PTH
FMAT,2
INCH
; #@! TA.AperFunction,Plated,PTH,ComponentDrill
T1C0.0295
; #@! TA.AperFunction,Plated,PTH,ComponentDrill
T2C0.0315
; #@! TA.AperFunction,Plated,PTH,ComponentDrill
T3C0.0354
; #@! TA.AperFunction,Plated,PTH,ComponentDrill
T4C0.0374
; #@! TA.AperFunction,Plated,PTH,ComponentDrill
T5C0.0394
; #@! TA.AperFunction,Plated,PTH,ComponentDrill
T6C0.0433
; #@! TA.AperFunction,Plated,PTH,ComponentDrill
T7C0.0472
; #@! TA.AperFunction,Plated,PTH,ComponentDrill
T8C0.1260
%
G90
G05
T1
X2.95Y-2.1
X3.0Y-2.1
X3.05Y-2.1
X3.1Y-2.6516
X3.1Y-2.7516
X3.15Y-4.25
X3.15Y-4.3
X3.15Y-4.35
X3.65Y-3.05
X3.65Y-3.15
X3.85Y-3.05
X3.85Y-3.15
X4.05Y-3.05
X4.05Y-3.15
X4.1Y-2.05
X4.1Y-2.1
X4.1Y-2.15
X4.55Y-2.4484
X4.55Y-2.4984
X4.55Y-2.5484
X4.65Y-3.75
X4.7Y-3.75
X4.75Y-3.75
X4.75Y-5.2
X4.8Y-5.2
X4.85Y-4.65
X4.85Y-4.7
X4.85Y-4.75
X4.85Y-4.9
X4.85Y-4.95
X4.85Y-5.0
X4.85Y-5.2
X4.9Y-2.65
X4.9Y-2.7
X4.9Y-2.75
X4.9Y-3.85
X4.9Y-3.9
X4.9Y-3.95
T2
X2.65Y-4.7531
X2.65Y-4.95
X2.75Y-2.0516
X2.75Y-2.15
X2.8Y-4.65
X2.8Y-4.95
X2.8Y-5.1
X2.8Y-5.4
X2.9Y-2.25
X2.9Y-2.55
X2.95Y-2.9
X2.95Y-3.0969
X2.95Y-4.3
X2.95Y-4.6
X2.95Y-4.7
X2.95Y-5.0
X2.95Y-5.1
X2.95Y-5.2969
X2.9531Y-5.4
X3.0Y-2.25
X3.0Y-2.55
X3.0Y-4.0031
X3.0Y-4.2
X3.0484Y-3.3
X3.0484Y-3.4969
X3.05Y-3.65
X3.05Y-3.7484
X3.1Y-2.85
X3.1Y-3.15
X3.1Y-4.8004
X3.1Y-4.9004
X3.1Y-5.0004
X3.1Y-5.1004
X3.1374Y-2.2563
X3.1374Y-2.4531
X3.15Y-5.25
X3.15Y-5.4
X3.2Y-3.8
X3.2Y-3.9
X3.2Y-4.0
X3.2Y-4.1
X3.25Y-2.05
X3.25Y-2.1484
X3.25Y-2.85
X3.25Y-3.15
X3.25Y-3.3657
X3.25Y-3.5579
X3.2531Y-5.4
X3.2858Y-2.2531
X3.2858Y-2.7531
X3.3016Y-4.25
X3.3016Y-4.4
X3.35Y-4.55
X3.4Y-2.85
X3.4Y-3.15
X3.4Y-4.8004
X3.4Y-4.9004
X3.4Y-5.0004
X3.4Y-5.1004
X3.4484Y-4.55
X3.45Y-2.15
X3.45Y-2.3469
X3.45Y-2.45
X3.45Y-2.75
X3.45Y-5.25
X3.45Y-5.4
X3.4984Y-4.25
X3.4984Y-4.4
X3.5Y-3.3657
X3.5Y-3.5579
X3.5Y-3.8
X3.5Y-3.9
X3.5Y-4.0
X3.5Y-4.1
X3.55Y-4.9
X3.55Y-5.1
X3.6Y-2.1484
X3.6Y-2.3453
X3.6Y-2.5531
X3.6Y-2.75
X3.6484Y-4.9
X3.65Y-3.8
X3.65Y-3.9969
X3.65Y-4.35
X3.65Y-4.65
X3.6516Y-5.35
X3.7079Y-4.15
X3.75Y-2.05
X3.75Y-2.35
X3.75Y-2.45
X3.75Y-2.75
X3.75Y-3.3657
X3.75Y-3.5579
X3.75Y-4.35
X3.75Y-4.65
X3.75Y-5.35
X3.8Y-3.8
X3.8Y-3.9969
X3.8Y-4.75
X3.8Y-4.9469
X3.85Y-4.35
X3.85Y-4.65
X3.85Y-5.1
X3.9Y-2.1516
X3.9Y-2.3484
X3.9Y-2.4516
X3.9Y-2.6484
X3.9Y-2.7516
X3.9Y-2.9484
X3.9Y-4.15
X3.95Y-4.35
X3.95Y-4.65
X3.95Y-4.75
X3.95Y-4.9469
X4.0Y-3.3579
X4.0Y-3.55
X4.0Y-3.8
X4.0Y-3.9969
X4.1Y-2.3016
X4.1Y-2.4984
X4.1Y-2.6
X4.1Y-2.7
X4.1Y-2.8
X4.1Y-2.9
X4.1Y-4.15
X4.1Y-4.6
X4.1Y-4.7969
X4.15Y-4.3016
X4.15Y-4.4
X4.2Y-3.45
X4.2Y-3.6469
X4.2Y-3.8
X4.2Y-3.9969
X4.2016Y-2.45
X4.2016Y-4.55
X4.25Y-2.05
X4.25Y-2.35
X4.35Y-3.1
X4.35Y-3.4
X4.35Y-3.5
X4.35Y-3.8
X4.35Y-4.85
X4.3984Y-2.45
X4.3984Y-4.55
X4.4Y-2.0484
X4.4Y-2.3484
X4.4Y-2.6
X4.4Y-2.7
X4.4Y-2.8
X4.4Y-2.9
X4.4484Y-4.85
X4.5Y-3.1
X4.5Y-3.4
X4.5Y-3.5
X4.5Y-3.8
X4.5Y-4.3
X4.5Y-4.6
X4.5031Y-2.95
X4.55Y-2.15
X4.55Y-2.3469
X4.55Y-2.65
X4.55Y-2.8469
X4.6Y-3.1
X4.6Y-3.4
X4.6Y-4.15
X4.6Y-4.3
X4.6Y-4.6
X4.6031Y-3.55
X4.65Y-4.7
X4.65Y-5.0
X4.7Y-2.6516
X4.7Y-2.8484
X4.7Y-2.95
X4.7Y-3.1
X4.7Y-3.4
X4.7Y-5.35
X4.7Y-5.4484
X4.75Y-2.25
X4.75Y-2.55
X4.75Y-3.9
X4.75Y-4.2
X4.8Y-3.1
X4.8Y-3.4
X4.8Y-3.55
X4.8031Y-2.9
X4.9Y-2.2516
X4.9Y-2.5516
X4.9Y-4.05
X4.9Y-4.2469
X4.95Y-3.5
X4.95Y-3.6969
X4.95Y-5.35
X4.95Y-5.4484
X5.0Y-2.9
X5.05Y-4.3016
X5.05Y-4.4984
X5.05Y-4.6
X5.05Y-4.9
X5.15Y-4.6
X5.15Y-4.9
X5.3Y-4.35
X5.3Y-4.65
X5.35Y-4.75
X5.35Y-4.8484
T3
X4.75Y-4.35
X4.8484Y-4.5469
X4.9469Y-4.35
T4
X2.75Y-2.35
X2.75Y-2.4484
X2.75Y-2.5469
X2.75Y-2.8
X2.75Y-2.8984
X2.75Y-2.9969
X2.75Y-4.3031
X2.75Y-4.4016
X2.75Y-4.5
T5
X2.5Y-4.7
X2.5Y-4.8
X2.5Y-4.9
X2.5Y-5.0
X2.5Y-5.1
X2.5Y-5.2
X4.0008Y-5.1642
X4.0992Y-5.1642
X4.3508Y-5.1642
X4.4492Y-5.1642
X4.7Y-2.1
X4.8Y-2.1
X4.9Y-2.1
X5.0Y-2.1
X5.1Y-2.1
X5.15Y-2.3516
X5.15Y-2.45
X5.15Y-2.7
X5.15Y-2.7984
X5.15Y-3.0508
X5.15Y-3.1492
X5.15Y-5.0508
X5.15Y-5.1492
X5.2Y-2.1
T6
X3.1Y-4.4689
X3.1Y-4.65
T7
X2.5244Y-3.5594
X2.5244Y-4.15
X2.8Y-3.5594
X2.8Y-4.15
X5.1244Y-3.6094
X5.1244Y-4.2
X5.4Y-3.6094
X5.4Y-4.2
T8
X2.5Y-2.1
X2.5Y-3.35
X2.5Y-5.4
X5.4Y-2.1
X5.4Y-3.4
X5.4Y-5.4
T0
M30
